<?xml version="1.0" encoding="UTF-8" standalone="no"?>
<!-- Created with Inkscape (http://www.inkscape.org/) -->

<svg
   xmlns:dc="http://purl.org/dc/elements/1.1/"
   xmlns:cc="http://creativecommons.org/ns#"
   xmlns:rdf="http://www.w3.org/1999/02/22-rdf-syntax-ns#"
   xmlns:svg="http://www.w3.org/2000/svg"
   xmlns="http://www.w3.org/2000/svg"
   xmlns:sodipodi="http://sodipodi.sourceforge.net/DTD/sodipodi-0.dtd"
   xmlns:inkscape="http://www.inkscape.org/namespaces/inkscape"
   id="svg2"
   version="1.1"
   inkscape:version="0.91 r13725"
   xml:space="preserve"
   width="1000"
   height="1000"
   viewBox="0 0 1000 1000"
   sodipodi:docname="logo.svg"><metadata
     id="metadata8"><rdf:RDF><cc:Work
         rdf:about=""><dc:format>image/svg+xml</dc:format><dc:type
           rdf:resource="http://purl.org/dc/dcmitype/StillImage" /><dc:title></dc:title></cc:Work></rdf:RDF></metadata><defs
     id="defs6"><clipPath
       clipPathUnits="userSpaceOnUse"
       id="clipPath18"><path
         d="M 0,800 800,800 800,0 0,0 0,800 Z"
         id="path20"
         inkscape:connector-curvature="0" /></clipPath><clipPath
       clipPathUnits="userSpaceOnUse"
       id="clipPath226"><path
         d="M 0,800 800,800 800,0 0,0 0,800 Z"
         id="path228"
         inkscape:connector-curvature="0" /></clipPath></defs><sodipodi:namedview
     pagecolor="#ffffff"
     bordercolor="#666666"
     borderopacity="1"
     objecttolerance="10"
     gridtolerance="10"
     guidetolerance="10"
     inkscape:pageopacity="0"
     inkscape:pageshadow="2"
     inkscape:window-width="1920"
     inkscape:window-height="1056"
     id="namedview4"
     showgrid="false"
     inkscape:zoom="0.944"
     inkscape:cx="578.22459"
     inkscape:cy="435.97276"
     inkscape:window-x="0"
     inkscape:window-y="24"
     inkscape:window-maximized="1"
     inkscape:current-layer="g10" /><g
     id="g10"
     inkscape:groupmode="layer"
     inkscape:label="6"
     transform="matrix(1.25,0,0,-1.25,0,1000)"><g
       id="g182"
       transform="matrix(0.62516611,-0.62516611,0.62516611,0.62516611,348.12779,313.0756)"
       style="fill:#ffe680"
       inkscape:export-xdpi="64.244583"
       inkscape:export-ydpi="64.244583"><path
         d="m 0,0 c 0,-52.467 -42.533,-95 -95,-95 -52.467,0 -95,42.533 -95,95 0,52.467 42.533,95 95,95 C -42.533,95 0,52.467 0,0"
         style="fill:#ffe680;fill-opacity:1;fill-rule:nonzero;stroke:none"
         id="path184"
         inkscape:connector-curvature="0" /></g><g
       id="g186"
       transform="matrix(0.62516611,-0.62516611,0.62516611,0.62516611,348.12779,431.85716)"
       style="fill:#ffd42a"
       inkscape:export-xdpi="64.244583"
       inkscape:export-ydpi="64.244583"><path
         d="m 0,0 0,-190 c 53,0 95,42.533 95,95 C 95,-42.533 53,0 0,0"
         style="fill:#ffd42a;fill-opacity:1;fill-rule:nonzero;stroke:none"
         id="path188"
         inkscape:connector-curvature="0" /></g><g
       id="g5148"
       transform="translate(192.37288,-61.016951)"
       inkscape:export-xdpi="64.244583"
       inkscape:export-ydpi="64.244583"><g
         transform="translate(160.35593,407.58308)"
         id="g260"><path
           inkscape:connector-curvature="0"
           id="path262"
           style="fill:#ffffff;fill-opacity:1;fill-rule:nonzero;stroke:none"
           d="m 0,0 c 0,-1.792 -1.453,-3.244 -3.244,-3.244 l -121.512,0 c -1.791,0 -3.244,1.452 -3.244,3.244 l 0,52.512 c 0,1.791 1.453,3.244 3.244,3.244 l 121.512,0 C -1.453,55.756 0,54.303 0,52.512 L 0,0 Z" /></g><path
         inkscape:connector-curvature="0"
         id="path264"
         style="fill:#cccccc;fill-opacity:1;fill-rule:nonzero;stroke:none"
         d="m 45.355932,450.33898 -5,0 0,7 5,0 0,-7 z" /><path
         inkscape:connector-curvature="0"
         id="path266"
         style="fill:#cccccc;fill-opacity:1;fill-rule:nonzero;stroke:none"
         d="m 56.355932,450.33898 -6,0 0,7 6,0 0,-7 z" /><path
         inkscape:connector-curvature="0"
         id="path268"
         style="fill:#cccccc;fill-opacity:1;fill-rule:nonzero;stroke:none"
         d="m 67.355932,450.33898 -6,0 0,7 6,0 0,-7 z" /><path
         inkscape:connector-curvature="0"
         id="path270"
         style="fill:#cccccc;fill-opacity:1;fill-rule:nonzero;stroke:none"
         d="m 77.355932,450.33898 -5,0 0,7 5,0 0,-7 z" /><path
         inkscape:connector-curvature="0"
         id="path272"
         style="fill:#cccccc;fill-opacity:1;fill-rule:nonzero;stroke:none"
         d="m 88.355932,450.33898 -5,0 0,7 5,0 0,-7 z" /><path
         inkscape:connector-curvature="0"
         id="path274"
         style="fill:#cccccc;fill-opacity:1;fill-rule:nonzero;stroke:none"
         d="m 99.355932,450.33898 -5,0 0,7 5,0 0,-7 z" /><path
         inkscape:connector-curvature="0"
         id="path276"
         style="fill:#cccccc;fill-opacity:1;fill-rule:nonzero;stroke:none"
         d="m 110.35593,450.33898 -6,0 0,7 6,0 0,-7 z" /><path
         inkscape:connector-curvature="0"
         id="path278"
         style="fill:#cccccc;fill-opacity:1;fill-rule:nonzero;stroke:none"
         d="m 121.35593,450.33898 -6,0 0,7 6,0 0,-7 z" /><path
         inkscape:connector-curvature="0"
         id="path280"
         style="fill:#cccccc;fill-opacity:1;fill-rule:nonzero;stroke:none"
         d="m 131.35593,450.33898 -5,0 0,7 5,0 0,-7 z" /><path
         inkscape:connector-curvature="0"
         id="path282"
         style="fill:#cccccc;fill-opacity:1;fill-rule:nonzero;stroke:none"
         d="m 142.35593,450.33898 -5,0 0,7 5,0 0,-7 z" /><path
         inkscape:connector-curvature="0"
         id="path284"
         style="fill:#cccccc;fill-opacity:1;fill-rule:nonzero;stroke:none"
         d="m 153.35593,450.33898 -5,0 0,7 5,0 0,-7 z" /><path
         inkscape:connector-curvature="0"
         id="path286"
         style="fill:#cccccc;fill-opacity:1;fill-rule:nonzero;stroke:none"
         d="m 45.355932,440.33898 -5,0 0,7 5,0 0,-7 z" /><path
         inkscape:connector-curvature="0"
         id="path288"
         style="fill:#cccccc;fill-opacity:1;fill-rule:nonzero;stroke:none"
         d="m 56.355932,440.33898 -6,0 0,7 6,0 0,-7 z" /><path
         inkscape:connector-curvature="0"
         id="path290"
         style="fill:#cccccc;fill-opacity:1;fill-rule:nonzero;stroke:none"
         d="m 67.355932,440.33898 -6,0 0,7 6,0 0,-7 z" /><path
         inkscape:connector-curvature="0"
         id="path292"
         style="fill:#cccccc;fill-opacity:1;fill-rule:nonzero;stroke:none"
         d="m 77.355932,440.33898 -5,0 0,7 5,0 0,-7 z" /><path
         inkscape:connector-curvature="0"
         id="path294"
         style="fill:#cccccc;fill-opacity:1;fill-rule:nonzero;stroke:none"
         d="m 88.355932,440.33898 -5,0 0,7 5,0 0,-7 z" /><path
         inkscape:connector-curvature="0"
         id="path296"
         style="fill:#cccccc;fill-opacity:1;fill-rule:nonzero;stroke:none"
         d="m 99.355932,440.33898 -5,0 0,7 5,0 0,-7 z" /><path
         inkscape:connector-curvature="0"
         id="path298"
         style="fill:#cccccc;fill-opacity:1;fill-rule:nonzero;stroke:none"
         d="m 110.35593,440.33898 -6,0 0,7 6,0 0,-7 z" /><path
         inkscape:connector-curvature="0"
         id="path300"
         style="fill:#cccccc;fill-opacity:1;fill-rule:nonzero;stroke:none"
         d="m 121.35593,440.33898 -6,0 0,7 6,0 0,-7 z" /><path
         inkscape:connector-curvature="0"
         id="path302"
         style="fill:#cccccc;fill-opacity:1;fill-rule:nonzero;stroke:none"
         d="m 131.35593,440.33898 -5,0 0,7 5,0 0,-7 z" /><path
         inkscape:connector-curvature="0"
         id="path304"
         style="fill:#cccccc;fill-opacity:1;fill-rule:nonzero;stroke:none"
         d="m 142.35593,440.33898 -5,0 0,7 5,0 0,-7 z" /><path
         inkscape:connector-curvature="0"
         id="path306"
         style="fill:#cccccc;fill-opacity:1;fill-rule:nonzero;stroke:none"
         d="m 153.35593,440.33898 -5,0 0,7 5,0 0,-7 z" /><path
         inkscape:connector-curvature="0"
         id="path308"
         style="fill:#cccccc;fill-opacity:1;fill-rule:nonzero;stroke:none"
         d="m 45.355932,431.33898 -5,0 0,6 5,0 0,-6 z" /><path
         inkscape:connector-curvature="0"
         id="path310"
         style="fill:#cccccc;fill-opacity:1;fill-rule:nonzero;stroke:none"
         d="m 56.355932,431.33898 -6,0 0,6 6,0 0,-6 z" /><path
         inkscape:connector-curvature="0"
         id="path312"
         style="fill:#cccccc;fill-opacity:1;fill-rule:nonzero;stroke:none"
         d="m 67.355932,431.33898 -6,0 0,6 6,0 0,-6 z" /><path
         inkscape:connector-curvature="0"
         id="path314"
         style="fill:#cccccc;fill-opacity:1;fill-rule:nonzero;stroke:none"
         d="m 77.355932,431.33898 -5,0 0,6 5,0 0,-6 z" /><path
         inkscape:connector-curvature="0"
         id="path316"
         style="fill:#cccccc;fill-opacity:1;fill-rule:nonzero;stroke:none"
         d="m 88.355932,431.33898 -5,0 0,6 5,0 0,-6 z" /><path
         inkscape:connector-curvature="0"
         id="path318"
         style="fill:#cccccc;fill-opacity:1;fill-rule:nonzero;stroke:none"
         d="m 99.355932,431.33898 -5,0 0,6 5,0 0,-6 z" /><path
         inkscape:connector-curvature="0"
         id="path320"
         style="fill:#cccccc;fill-opacity:1;fill-rule:nonzero;stroke:none"
         d="m 110.35593,431.33898 -6,0 0,6 6,0 0,-6 z" /><path
         inkscape:connector-curvature="0"
         id="path322"
         style="fill:#cccccc;fill-opacity:1;fill-rule:nonzero;stroke:none"
         d="m 121.35593,431.33898 -6,0 0,6 6,0 0,-6 z" /><path
         inkscape:connector-curvature="0"
         id="path324"
         style="fill:#cccccc;fill-opacity:1;fill-rule:nonzero;stroke:none"
         d="m 131.35593,431.33898 -5,0 0,6 5,0 0,-6 z" /><path
         inkscape:connector-curvature="0"
         id="path326"
         style="fill:#cccccc;fill-opacity:1;fill-rule:nonzero;stroke:none"
         d="m 142.35593,431.33898 -5,0 0,6 5,0 0,-6 z" /><path
         inkscape:connector-curvature="0"
         id="path328"
         style="fill:#cccccc;fill-opacity:1;fill-rule:nonzero;stroke:none"
         d="m 153.35593,431.33898 -5,0 0,6 5,0 0,-6 z" /><path
         inkscape:connector-curvature="0"
         id="path330"
         style="fill:#cccccc;fill-opacity:1;fill-rule:nonzero;stroke:none"
         d="m 45.355932,421.33898 -5,0 0,6 5,0 0,-6 z" /><path
         inkscape:connector-curvature="0"
         id="path332"
         style="fill:#cccccc;fill-opacity:1;fill-rule:nonzero;stroke:none"
         d="m 56.355932,421.33898 -6,0 0,6 6,0 0,-6 z" /><path
         inkscape:connector-curvature="0"
         id="path334"
         style="fill:#cccccc;fill-opacity:1;fill-rule:nonzero;stroke:none"
         d="m 67.355932,421.33898 -6,0 0,6 6,0 0,-6 z" /><path
         inkscape:connector-curvature="0"
         id="path336"
         style="fill:#cccccc;fill-opacity:1;fill-rule:nonzero;stroke:none"
         d="m 77.355932,421.33898 -5,0 0,6 5,0 0,-6 z" /><path
         inkscape:connector-curvature="0"
         id="path338"
         style="fill:#cccccc;fill-opacity:1;fill-rule:nonzero;stroke:none"
         d="m 88.355932,421.33898 -5,0 0,6 5,0 0,-6 z" /><path
         inkscape:connector-curvature="0"
         id="path340"
         style="fill:#cccccc;fill-opacity:1;fill-rule:nonzero;stroke:none"
         d="m 99.355932,421.33898 -5,0 0,6 5,0 0,-6 z" /><path
         inkscape:connector-curvature="0"
         id="path342"
         style="fill:#cccccc;fill-opacity:1;fill-rule:nonzero;stroke:none"
         d="m 110.35593,421.33898 -6,0 0,6 6,0 0,-6 z" /><path
         inkscape:connector-curvature="0"
         id="path344"
         style="fill:#cccccc;fill-opacity:1;fill-rule:nonzero;stroke:none"
         d="m 121.35593,421.33898 -6,0 0,6 6,0 0,-6 z" /><path
         inkscape:connector-curvature="0"
         id="path346"
         style="fill:#cccccc;fill-opacity:1;fill-rule:nonzero;stroke:none"
         d="m 131.35593,421.33898 -5,0 0,6 5,0 0,-6 z" /><path
         inkscape:connector-curvature="0"
         id="path348"
         style="fill:#cccccc;fill-opacity:1;fill-rule:nonzero;stroke:none"
         d="m 142.35593,421.33898 -5,0 0,6 5,0 0,-6 z" /><path
         inkscape:connector-curvature="0"
         id="path350"
         style="fill:#cccccc;fill-opacity:1;fill-rule:nonzero;stroke:none"
         d="m 153.35593,421.33898 -5,0 0,6 5,0 0,-6 z" /><path
         inkscape:connector-curvature="0"
         id="path352"
         style="fill:#cccccc;fill-opacity:1;fill-rule:nonzero;stroke:none"
         d="m 45.355932,411.33898 -5,0 0,7 5,0 0,-7 z" /><path
         inkscape:connector-curvature="0"
         id="path354"
         style="fill:#cccccc;fill-opacity:1;fill-rule:nonzero;stroke:none"
         d="m 56.355932,411.33898 -6,0 0,7 6,0 0,-7 z" /><path
         inkscape:connector-curvature="0"
         id="path356"
         style="fill:#cccccc;fill-opacity:1;fill-rule:nonzero;stroke:none"
         d="m 110.35593,411.33898 -48.999998,0 0,7 48.999998,0 0,-7 z" /><path
         inkscape:connector-curvature="0"
         id="path358"
         style="fill:#cccccc;fill-opacity:1;fill-rule:nonzero;stroke:none"
         d="m 121.35593,411.33898 -6,0 0,7 6,0 0,-7 z" /><path
         inkscape:connector-curvature="0"
         id="path360"
         style="fill:#cccccc;fill-opacity:1;fill-rule:nonzero;stroke:none"
         d="m 131.35593,411.33898 -5,0 0,7 5,0 0,-7 z" /><path
         inkscape:connector-curvature="0"
         id="path362"
         style="fill:#cccccc;fill-opacity:1;fill-rule:nonzero;stroke:none"
         d="m 142.35593,411.33898 -5,0 0,7 5,0 0,-7 z" /><path
         inkscape:connector-curvature="0"
         id="path364"
         style="fill:#cccccc;fill-opacity:1;fill-rule:nonzero;stroke:none"
         d="m 153.35593,411.33898 -5,0 0,7 5,0 0,-7 z" /></g><g
       id="g398"
       transform="translate(350.06393,620.88878)" /><g
       id="g412"
       transform="translate(607.35593,728.33898)" /><g
       id="g486"
       transform="translate(139.35593,635.79848)" /></g></svg>